<svg width="32" height="32" viewBox="0 0 32 32" fill="none" xmlns="http://www.w3.org/2000/svg">
<path fill-rule="evenodd" clip-rule="evenodd" d="M11.4271 12.3946C13.1194 12.3946 14.5542 13.487 15.0742 15.004H16.9622C17.4824 13.4892 18.9126 12.3991 20.6003 12.3985C22.7273 12.3985 24.453 14.1275 24.4531 16.2592C24.4525 18.3905 22.727 20.1185 20.6003 20.1186C18.9213 20.118 17.4968 19.0389 16.9701 17.5365H15.0638C14.5346 19.0372 13.1075 20.1147 11.4271 20.1147C9.29738 20.1139 7.57031 18.3851 7.57031 16.254C7.57059 14.1231 9.29755 12.3953 11.4271 12.3946ZM18.5703 18.2865H22.6146V14.2332H18.5703V18.2865ZM9.40495 18.2839H13.4557V14.2305H9.40495V18.2839Z" fill="black"/>
<path fill-rule="evenodd" clip-rule="evenodd" d="M15.9987 2.66675C18.585 2.66675 20.8653 4.41575 21.543 6.91935C22.2187 9.25469 22.8771 9.85828 25.2526 10.3178C28.0046 10.8038 30 13.1939 30 16.0001L29.9948 16.2618C29.8753 18.9537 27.9205 21.2103 25.2617 21.6811C22.8773 22.1424 22.2181 22.7452 21.5443 25.0743C20.8686 27.5702 18.6102 29.3142 16.043 29.3334L16.0013 29.3243H15.9987L15.957 29.3334L15.7174 29.3269C13.2502 29.205 11.1098 27.4946 10.457 25.0821C9.78131 22.7452 9.12263 22.1437 6.74349 21.6824C4.07748 21.2097 2.12457 18.9537 2.00521 16.2618L2 16.0001C2 13.2816 3.87067 10.9533 6.48438 10.3686L6.73958 10.3178C9.1224 9.85644 9.7812 9.25497 10.4531 6.92586C11.1326 4.41664 13.4125 2.66691 15.9987 2.66675ZM15.9987 4.00008C14.0183 4.00024 12.264 5.34222 11.7409 7.27352L11.7383 7.28394L11.7344 7.29435C11.388 8.49521 10.9747 9.54165 10.138 10.3061C9.30144 11.0702 8.22139 11.3886 6.99349 11.6264L6.98307 11.629L6.97266 11.6303C4.86921 12.0025 3.33333 13.8345 3.33333 16.0001C3.33333 18.0295 4.68027 19.7652 6.58724 20.2826L6.97656 20.3699L6.98698 20.3712L6.9974 20.3738C8.22386 20.6116 9.30271 20.9299 10.1393 21.6954C10.871 22.3649 11.2801 23.2505 11.6042 24.2683L11.7383 24.7123L11.7409 24.7227L11.7448 24.7345C12.2512 26.6056 13.9232 27.9219 15.8359 27.9936L15.849 27.991H16.151L16.1628 27.9936C18.0747 27.9224 19.7492 26.6054 20.2578 24.7266L20.2604 24.7149L20.263 24.7045C20.6104 23.5037 21.0251 22.4574 21.862 21.6928C22.699 20.9282 23.7796 20.609 25.0091 20.3712L25.0195 20.3699L25.0299 20.3673C27.1317 19.9949 28.6667 18.1653 28.6667 16.0001C28.6667 13.8358 27.1309 12.0029 25.0208 11.6303L25.0104 11.629L25 11.6264C23.7744 11.3893 22.6956 11.0706 21.8594 10.3048C21.0246 9.53997 20.6098 8.49339 20.2617 7.29045L20.2591 7.27873L20.2552 7.26831C19.7342 5.34337 17.9802 4.00008 15.9987 4.00008Z" fill="black"/>
</svg>
