<svg width="23" height="24" viewBox="0 0 23 24" fill="none" xmlns="http://www.w3.org/2000/svg">
<path d="M10.5 21C10.5 22.2887 9.45533 23.3333 8.16667 23.3333C6.878 23.3333 5.83333 22.2887 5.83333 21V18.6667H10.5V21ZM17.5 21C17.5 22.2887 16.4553 23.3333 15.1667 23.3333C13.878 23.3333 12.8333 22.2887 12.8333 21V18.6667H17.5V21ZM4.66667 2.33333H20.984L21.1219 2.34131C21.801 2.41869 22.285 3.05893 22.1416 3.73812L19.6772 15.4048L19.6522 15.5039C19.503 15.9925 19.045 16.3333 18.5197 16.3333H3.51595C2.86281 16.3333 2.33333 15.811 2.33333 15.1667V2.33333H0V0H4.66667V2.33333ZM4.66667 14H17.5889L19.5599 4.66667H4.66667V14Z" fill="#3DC322"/>
</svg>
