<svg xmlns="http://www.w3.org/2000/svg" fill="none" viewBox="0 0 155 32"><path fill="#000" d="M29.361 8.947c-2.217-.553-2.91-1.142-3.533-3.08-1.177-3.738-3.567-5.71-6.927-5.71s-5.75 1.972-6.927 5.71c-.624 1.938-1.317 2.527-3.533 3.08-3.776.935-6.096 3.53-6.096 6.992 0 3.46 2.32 6.057 6.096 6.991 2.216.554 2.91 1.142 3.533 3.08 1.177 3.738 3.567 5.711 6.927 5.711s5.75-1.973 6.927-5.71c.624-1.939 1.316-2.527 3.533-3.08 3.775-.935 6.096-3.531 6.096-6.992s-2.32-6.057-6.096-6.992m-5.022 12.149c-2.252 0-4.122-1.558-4.641-3.669h-1.524c-.52 2.077-2.425 3.669-4.676 3.669-2.633 0-4.78-2.18-4.78-4.811a4.79 4.79 0 0 1 4.78-4.776 4.83 4.83 0 0 1 4.676 3.634h1.524a4.755 4.755 0 0 1 4.64-3.634c2.633 0 4.815 2.146 4.815 4.776s-2.182 4.81-4.814 4.81"/><path fill="#000" d="M26.52 14.139h-4.329v4.326h4.33zM15.68 14.139h-4.33v4.326h4.33zM58.802 3.825h-5.957l-5.68 7.753-5.75-7.753H35.18l8.895 11.903-9.31 12.325h5.992l6.2-8.452 6.269 8.452h6.269l-9.45-12.61zM64.274 10.782l5.854-6.957h-6.027l-3.117 3.669c-1.005 1.211-1.49 2.423-1.49 3.738s.486 2.492 1.49 3.738l4.745 5.953-5.576 7.13h6.165l2.736-3.461c1.04-1.316 1.524-2.562 1.524-3.911s-.485-2.596-1.524-3.911zM85.333 3.271c-7.1 0-12.677 5.573-12.677 12.668s5.577 12.667 12.677 12.667S98.01 23.034 98.01 15.94 92.434 3.27 85.333 3.27m0 20.49c-4.26 0-7.481-3.357-7.481-7.822s3.221-7.822 7.481-7.822 7.482 3.357 7.482 7.822-3.221 7.822-7.482 7.822M96.902 3.825l13.023 24.228h6.096L102.998 3.825zM138.881 3.825h-3.637l-9.92 19.112-10.273-19.112h-6.096l13.023 24.228h29.476zm-8.476 19.728 6.543-13.006 6.533 13.006z"/></svg>