<svg width="18" height="18" viewBox="0 0 18 18" fill="none" xmlns="http://www.w3.org/2000/svg">
<path d="M9.00098 11.1116C12.0046 11.1116 14.6326 12.7172 16.0754 15.1165L14.7893 15.8884C13.6088 13.9253 11.4586 12.6116 9.00098 12.6116C6.54326 12.6116 4.39235 13.9251 3.21191 15.8884L1.92578 15.1165C3.36856 12.717 5.99721 11.1116 9.00098 11.1116Z" fill="#22A8C3"/>
<path fill-rule="evenodd" clip-rule="evenodd" d="M9.00098 2.11157C11.072 2.11157 12.751 3.7905 12.751 5.86157C12.751 7.93264 11.072 9.61157 9.00098 9.61157C6.92991 9.61157 5.25098 7.93264 5.25098 5.86157C5.25098 3.7905 6.92991 2.11157 9.00098 2.11157ZM9.00098 3.61157C7.75834 3.61157 6.75098 4.61893 6.75098 5.86157C6.75098 7.10421 7.75834 8.11157 9.00098 8.11157C10.2436 8.11157 11.251 7.10421 11.251 5.86157C11.251 4.61893 10.2436 3.61157 9.00098 3.61157Z" fill="#22A8C3"/>
</svg>
