<svg width="24" height="24" viewBox="0 0 24 24" fill="none" xmlns="http://www.w3.org/2000/svg">
    <path fill-rule="evenodd" clip-rule="evenodd" d="M4 3C3.44772 3 3 3.44772 3 4C3 4.55228 3.44772 5 4 5H4.36039C4.83707 5 5.24749 5.33646 5.34097 5.80389L6.69787 12.5883C6.97832 13.9906 8.20956 15 9.63961 15H16.9872C18.3296 15 19.5086 14.1082 19.874 12.8165L20.9025 9.18045C21.3538 7.58485 20.1551 6 18.4969 6H7.4198L7.30213 5.41165C7.02168 4.00938 5.79044 3 4.36039 3H4ZM8.65903 12.1961L7.8198 8H18.4969C18.8285 8 19.0683 8.31697 18.978 8.63609L17.9495 12.2722C17.8277 12.7027 17.4347 13 16.9872 13H9.63961C9.16293 13 8.75251 12.6635 8.65903 12.1961ZM9 21C10.1046 21 11 20.1046 11 19C11 17.8954 10.1046 17 9 17C7.89543 17 7 17.8954 7 19C7 20.1046 7.89543 21 9 21ZM17 21C18.1046 21 19 20.1046 19 19C19 17.8954 18.1046 17 17 17C15.8954 17 15 17.8954 15 19C15 20.1046 15.8954 21 17 21Z" fill="#A3F5C8"/>
</svg>
