<svg width="68" height="68" viewBox="0 0 68 68" fill="none" xmlns="http://www.w3.org/2000/svg">
  <path d="M19.4297 34.0017C24.1675 32.4071 27.8683 27.7811 29.144 21.8588C30.4196 27.7811 34.1204 32.4071 38.8583 34.0017C34.1204 35.5962 30.4196 40.2223 29.144 46.1445C27.8683 40.2223 24.1675 35.5962 19.4297 34.0017Z" fill="white"/>
  <path d="M52.9824 56.1135C47.8828 60.495 41.2506 63.1429 34 63.1429C26.7494 63.1429 20.1172 60.495 15.0176 56.1135L11.5746 59.5565C17.5602 64.8129 25.4079 68 34 68C42.5921 68 50.4398 64.8129 56.4254 59.5565L52.9824 56.1135Z" fill="white"/>
  <path d="M56.3917 52.6537L59.8383 56.1004C64.9266 50.157 68 42.4374 68 34C68 25.4079 64.8129 17.5602 59.5564 11.5746L56.1134 15.0176C60.495 20.1171 63.1429 26.7493 63.1429 34C63.1429 41.0959 60.6068 47.5994 56.3917 52.6537Z" fill="white"/>
  <path d="M52.6537 11.6083C47.5994 7.39317 41.0959 4.85714 34 4.85714C26.9041 4.85714 20.4006 7.39317 15.3463 11.6083L11.8997 8.16167C17.843 3.07336 25.5626 0 34 0C42.4374 0 50.157 3.07336 56.1003 8.16167L52.6537 11.6083Z" fill="white"/>
  <path d="M8.44357 11.5746C3.18709 17.5602 0 25.4079 0 34C0 42.4374 3.07338 50.157 8.16171 56.1003L11.6083 52.6537C7.39318 47.5994 4.85714 41.0959 4.85714 34C4.85714 26.7493 7.50503 20.1171 11.8866 15.0176L8.44357 11.5746Z" fill="white"/>
  <path fill-rule="evenodd" clip-rule="evenodd" d="M29.1445 9.71484H38.8588C48.2477 9.71484 55.8588 20.5879 55.8588 34.0006C55.8588 47.4132 48.2477 58.2863 38.8588 58.2863H29.1445C19.7557 58.2863 12.1445 47.4132 12.1445 34.0006C12.1445 20.5879 19.7557 9.71484 29.1445 9.71484ZM41.2874 34.0006C41.2874 39.8325 39.6248 44.904 37.1862 48.3878C34.7369 51.8868 31.819 53.4291 29.1445 53.4291C26.4701 53.4291 23.5522 51.8868 21.1028 48.3878C18.6642 44.904 17.0017 39.8325 17.0017 34.0006C17.0017 28.1686 18.6642 23.0971 21.1028 19.6134C23.5522 16.1143 26.4701 14.572 29.1445 14.572C31.819 14.572 34.7369 16.1143 37.1862 19.6134C39.6248 23.0971 41.2874 28.1686 41.2874 34.0006ZM39.3631 53.4109C41.8963 53.2286 44.6043 51.6681 46.9005 48.3878C49.3391 44.904 51.0017 39.8325 51.0017 34.0006C51.0017 28.1686 49.3391 23.0971 46.9005 19.6134C44.6043 16.333 41.8963 14.7725 39.3631 14.5902C43.4817 19.0221 46.1445 26.0671 46.1445 34.0006C46.1445 41.934 43.4817 48.979 39.3631 53.4109Z" fill="white"/>
</svg>
