<svg width="24" height="24" viewBox="0 0 24 24" fill="none" xmlns="http://www.w3.org/2000/svg">
<path fill-rule="evenodd" clip-rule="evenodd" d="M5 11C5 7.13401 8.13401 4 12 4C15.866 4 19 7.13401 19 11C19 13.2061 17.6639 15.268 15.7951 16.8876L12.3537 19.8702C12.1507 20.0461 11.8493 20.0461 11.6463 19.8702L8.20492 16.8876C6.33607 15.268 5 13.2061 5 11ZM12 2C7.02944 2 3 6.02944 3 11C3 14.0264 4.80977 16.5918 6.89505 18.399L10.3365 21.3816C11.2912 22.209 12.7088 22.209 13.6635 21.3816L17.1049 18.399C19.1902 16.5918 21 14.0264 21 11C21 6.02944 16.9706 2 12 2ZM12 13C13.1046 13 14 12.1046 14 11C14 9.89543 13.1046 9 12 9C10.8954 9 10 9.89543 10 11C10 12.1046 10.8954 13 12 13Z" fill="#fff"/>
</svg>
