<svg width="18" height="16" viewBox="0 0 18 16" fill="none" xmlns="http://www.w3.org/2000/svg">
    <path d="M0 1C0 0.447715 0.447715 0 1 0H16.9934C17.5456 0 17.9934 0.447715 17.9934 1C17.9934 1.55228 17.5456 2 16.9934 2H1C0.447715 2 0 1.55228 0 1ZM0 8C0 7.44771 0.447715 7 1 7H16.9934C17.5456 7 17.9934 7.44771 17.9934 8C17.9934 8.55228 17.5456 9 16.9934 9H1C0.447715 9 0 8.55228 0 8ZM0 15C0 14.4477 0.447715 14 1 14H16.9934C17.5456 14 17.9934 14.4477 17.9934 15C17.9934 15.5523 17.5456 16 16.9934 16H1C0.447715 16 0 15.5523 0 15Z" fill="#F7F7F8"/>
</svg>
