<svg width="118" height="24" viewBox="0 0 118 24" fill="none" xmlns="http://www.w3.org/2000/svg">
  <path fill-rule="evenodd" clip-rule="evenodd" d="M15.8705 5.98861C15.8705 6.82435 16.4815 7.38688 17.3333 7.38688C18.1852 7.38688 18.7962 6.82435 18.7962 5.98861C18.7962 5.16893 18.1852 4.59033 17.3333 4.59033C16.4815 4.59033 15.8705 5.16893 15.8705 5.98861ZM31.8476 14.0575C31.8476 13.8167 31.8958 13.5753 32.0887 13.3822C32.3937 13.0768 32.9887 12.8521 34.3548 12.5304V14.5879C33.6801 14.9576 33.2941 15.1025 32.844 15.1025C32.2333 15.1025 31.8476 14.7007 31.8476 14.0575ZM24.3571 9.8624C25.3056 9.8624 26.061 10.6178 26.061 12.225C26.061 14.2825 24.9521 15.1986 23.7145 15.1986C23.4252 15.1986 23.1517 15.1665 22.846 15.0698V10.4089C23.377 10.0395 23.8106 9.8624 24.3571 9.8624ZM45.944 8.0784L45.9598 8.06232H43.565L42.0539 13.3021H41.9736L40.2381 8.06232H37.3927L40.8164 16.7097L39.3857 19.3458V19.4101H41.62L45.944 8.0784ZM16.0633 16.6776H18.603V8.06262H16.0633V16.6776ZM34.6602 16.6776H37.1999L36.8945 14.5236V10.9232C36.8945 8.96236 35.7373 7.88524 33.6959 7.88524C32.3937 7.88524 31.494 8.11025 29.8546 8.60878L30.3047 10.5856C31.7994 9.91062 32.458 9.62132 33.1494 9.62132C33.9849 9.62132 34.3548 10.216 34.3548 11.1324V11.1961C31.4458 11.7431 30.5457 12.0485 29.9829 12.6107C29.565 13.0286 29.3885 13.6236 29.3885 14.3147C29.3885 15.9701 30.674 16.8541 31.8794 16.8541C32.7795 16.8541 33.503 16.5171 34.4837 15.7772L34.6602 16.6776ZM24.325 16.7901C26.5914 16.7901 28.6329 15.1186 28.6329 12.1449C28.6329 9.47667 27.1539 7.88524 25.3217 7.88524C24.3895 7.88524 23.6663 8.23912 22.846 8.91415V8.06232H20.3069V19.4101H22.846V16.5972C23.3288 16.7258 23.7788 16.7901 24.325 16.7901ZM3.63898 12.6107L5.14976 7.3873H5.21375L6.64476 12.6107H3.63898ZM0.118896 16.6776H2.46542L3.10802 14.4593H7.1427L7.75344 16.6776H10.7592L7.33556 5.34555H3.92828L0.118896 16.6776ZM11.7878 16.6776H14.3275V4.94434H11.7878V16.6776ZM57.5314 13.5846H63.2972V12.0981C63.2972 11.3322 62.6765 10.7109 61.9103 10.7109H57.5313V6.33199C57.5313 5.56638 56.9104 4.94482 56.1442 4.94482H54.6573V10.7109C54.6573 11.703 55.1601 12.5775 55.9246 13.0939C56.3832 13.4037 56.9361 13.5846 57.5313 13.5846H57.5314ZM53.2602 13.5846H50.2786C49.5124 13.5846 48.8915 12.9637 48.8915 12.1975V10.7109H53.2602V13.5846ZM54.6573 17.9636V14.9946H57.5313V19.3508H56.0445C55.2783 19.3508 54.6573 18.7298 54.6573 17.9636ZM71.0381 12.3193V9.98743H72.5457C72.9142 9.98743 73.212 10.0839 73.4402 10.2759C73.6678 10.4684 73.7821 10.7592 73.7821 11.1493C73.7821 11.5394 73.6678 11.8316 73.4402 12.0265C73.212 12.2217 72.9142 12.3193 72.5457 12.3193H71.0381ZM73.3245 9.55056C73.1021 9.46874 72.859 9.42725 72.5954 9.42725H70.4116V15.2939H71.0381V12.8792H72.5954C72.859 12.8792 73.1021 12.8383 73.3245 12.7559C73.5471 12.6738 73.7394 12.5566 73.9016 12.4056C74.0635 12.2548 74.1883 12.0736 74.2762 11.862C74.3639 11.6507 74.408 11.4126 74.408 11.1493C74.408 10.8857 74.3639 10.6484 74.2762 10.4369C74.1883 10.225 74.0635 10.045 73.9016 9.89684C73.7394 9.74869 73.5471 9.63297 73.3245 9.55056ZM77.9099 13.4234H80.0936L79.006 10.3168L77.9099 13.4234ZM81.42 15.2939H80.7529L80.283 13.9672H77.7205L77.2509 15.2939H76.5835L78.7424 9.42725H79.2696L81.42 15.2939ZM85.1364 12.1379V9.98743H86.7018C87.0481 9.98743 87.3295 10.0766 87.5466 10.2551C87.7635 10.4334 87.8719 10.7042 87.8719 11.0669C87.8719 11.4295 87.7635 11.6984 87.5466 11.8746C87.3295 12.0505 87.0481 12.1379 86.7018 12.1379H85.1364ZM87.4598 9.53858C87.2457 9.46407 87.0125 9.42725 86.7597 9.42725H84.5099V15.2939H85.1364V12.6902H86.5452L87.8804 15.2939H88.6135L87.2211 12.6323C87.6001 12.5555 87.9075 12.3813 88.1439 12.1092C88.3803 11.8375 88.4984 11.4871 88.4984 11.0584C88.4984 10.8059 88.4554 10.578 88.3704 10.3746C88.2851 10.1715 88.1656 9.99971 88.0119 9.86002C87.8579 9.71976 87.6743 9.61222 87.4598 9.53858ZM95.2797 9.98743H93.5822V15.2939H92.9562V9.98743H91.2584V9.42725H95.2797V9.98743ZM102.259 15.2939H102.852V9.42725H102.225V14.1156L99.1109 9.42725H98.5177V15.2939H99.1439V10.5888L102.259 15.2939ZM110.334 9.98743H107.318V12.0555H109.889V12.6157H107.318V14.7337H110.334V15.2939H106.691V9.42725H110.334V9.98743ZM114.404 12.1379V9.98743H115.969C116.316 9.98743 116.597 10.0766 116.814 10.2551C117.031 10.4334 117.14 10.7042 117.14 11.0669C117.14 11.4295 117.031 11.6984 116.814 11.8746C116.597 12.0505 116.316 12.1379 115.969 12.1379H114.404ZM116.727 9.53858C116.513 9.46407 116.28 9.42725 116.027 9.42725H113.778V15.2939H114.404V12.6902H115.813L117.148 15.2939H117.881L116.489 12.6323C116.868 12.5555 117.175 12.3813 117.412 12.1092C117.647 11.8375 117.766 11.4871 117.766 11.0584C117.766 10.8059 117.723 10.578 117.638 10.3746C117.553 10.1715 117.433 9.99971 117.28 9.86002C117.126 9.71976 116.942 9.61222 116.727 9.53858Z" fill="var(--color-icon)" fill-opacity="0.5"/>
</svg>
